<svg xmlns="http://www.w3.org/2000/svg" width="500" height="500" viewBox="0 0 500 500">
<path fill="#0066ff" transform="translate(0 500) scale(.1 -.1)" d="M2325 4994c-433-44-765-148-1093-342-511-303-906-787-1096-1344-46-135-91-324-113-473-24-165-24-505 0-670 80-552 325-1043 712-1430 387-387 878-632 1430-712 165-24 505-24 670 0 552 80 1043 325 1430 712 387 387 632 878 712 1430 24 165 24 505 0 670-80 552-325 1043-712 1430-380 381-866 626-1397 706-127 19-449 33-543 23zm1613-659c3-19-16-74-53-161-56-129-58-132-81-122-13 6-24 15-24 19 0 4 22 59 50 121l49 113-59 3c-55 3-60 5-60 26 0 12 3 26 7 30 4 4 43 5 88 4l80-3 3-30zm220-210c3-19-16-74-53-161-56-129-58-132-81-122-13 6-24 15-24 19 0 4 22 59 50 121l49 113-59 3c-55 3-60 5-60 26 0 12 3 26 7 30 4 4 43 5 88 4l80-3 3-30zm220-180c3-19-16-74-53-161-56-129-58-132-81-122-13 6-24 15-24 19 0 4 22 59 50 121l49 113-59 3c-55 3-60 5-60 26 0 12 3 26 7 30 4 4 43 5 88 4l80-3 3-30zm-1824-215c25-34 48-70 51-80 9-28 18-25 78 18 92 67 177 114 218 119 53 8 138-35 251-126 113-92 271-247 292-288 44-87 42-307-3-405-12-24-55-82-96-130-41-48-75-91-74-95 0-4 41-43 90-87 50-43 112-105 139-137 61-73 74-128 68-289-4-109-6-120-37-176-84-150-321-374-483-457l-63-32-355 0-355 0-5 805-5 805-23 68c-14 40-50 108-88 164l-65 96 23 16c208 148 385 270 391 271 4 0 27-27 51-60zm-674-1075l0-1095-215 0-215 0 0 1095 0 1095 215 0 215 0 0-1095zm-1270 179c44-30 130-118 130-134 0-8 8-1 18 15 26 42 119 124 150 132 33 8 78-17 137-77 56-57 64-87 64-235 0-158-8-188-64-245-60-61-104-85-138-76-31 7-143 109-153 138-3 11-9 60-13 109l-6 88-105-72c-98-68-105-75-108-109l-3-37 113-3 113-3 3-52 3-53-180 0-181 0 0 100c0 96 1 100 30 133 16 19 65 58 107 87 96 65 105 76 97 115-6 30-40 75-56 75-15 0-60-53-70-83-11-31-17-31-77 8l-41 25 19 38c20 38 80 101 116 120 29 16 67 14 95-4zm3506-6c55-41 103-91 115-119l11-29 20 40c21 42 106 117 143 126 29 7 67-13 126-65 65-56 72-81 67-209-7-164-36-217-172-313l-68-49-44 32c-24 17-44 35-44 38 0 4 15 14 32 21 35 14 108 75 108 90 0 5-5 9-11 9-21 0-110 72-134 108l-25 37 0-88c0-105-10-128-82-191-61-54-87-63-127-46-47 19-137 113-145 150-8 41-8 263 1 313 9 59 125 167 179 167 12 0 34-10 50-22zM2765 3353c-27-8-54-18-58-22-4-4-5-112-1-239l7-232 84 0 84 0 48 45c81 76 123 182 107 269-9 47-79 152-118 176-39 23-84 24-153 3zM2710 2225l0-285 110 0c131 0 147 6 219 86 74 84 85 112 89 229 2 89 0 104-20 140-13 22-46 56-73 77l-50 38-137 0-138 0 0-285zM892 2710c-21-20-22-29-22-179 0-152 1-158 23-179 29-28 38-28 65 1 21 22 22 33 22 180 0 144-2 159-20 177-25 25-41 25-68 0zM4029 2711c-22-17-23-27-27-147-4-157 4-203 40-224 25-13 29-13 52 9 26 24 26 26 26 176 0 139-2 155-21 179-24 31-39 32-70 7zM4404 2722c-24-16-44-59-44-93 0-64 19-99 64-120 51-23 56-17 56 83 0 68-3 80-26 107-27 33-33 35-50 23z"></path>
</svg>
